<svg xmlns="http://www.w3.org/2000/svg" viewBox="0 0 470 180" fill="none">
  <defs>
    <linearGradient id="g" x1="20" y1="30" x2="430" y2="160" gradientUnits="userSpaceOnUse">
      <stop offset="0" stop-color="#22d3ee"/>
      <stop offset="0.5" stop-color="#3b82f6"/>
      <stop offset="1" stop-color="#8b5cf6"/>
    </linearGradient>
    <!-- knock the connecting strokes out of the node interiors for clean rings -->
    <mask id="nodeMask" maskUnits="userSpaceOnUse" x="0" y="0" width="470" height="180">
      <rect x="0" y="0" width="470" height="180" fill="white"/>
      <circle cx="62" cy="40" r="11" fill="black"/>
      <circle cx="36" cy="90" r="11" fill="black"/>
      <circle cx="62" cy="140" r="11" fill="black"/>
    </mask>
  </defs>

  <!-- ===== mark: all arcs lie on one circle, center (98,90) r=62 ===== -->
  <g stroke="url(#g)" stroke-width="5" stroke-linecap="round" stroke-linejoin="round">
    <g mask="url(#nodeMask)">
      <!-- left dashed arc: top node -> left node -> bottom node -->
      <path d="M 62 40 A 62 62 0 0 0 62 140" stroke-dasharray="2 11"/>
      <!-- top flow arc: top node, over the top, down to the square -->
      <path d="M 62 40 A 62 62 0 0 1 157 72"/>
      <path d="M 148 64.5 L 157 72 L 159.4 60.6"/>
      <!-- bottom flow arc: bottom node, under the bottom, up to the square -->
      <path d="M 62 140 A 62 62 0 0 0 157 108"/>
      <path d="M 148 115.5 L 157 108 L 159.4 119.4"/>
      <!-- middle flow: dotted line -> lambda -> arrow into square -->
      <path d="M 48 90 L 82 90" stroke-dasharray="1 9"/>
      <path d="M 95 72 L 109 108"/>
      <path d="M 102 90 L 89 108"/>
      <path d="M 114 90 L 129 90"/>
      <path d="M 122 84 L 130 90 L 122 96"/>
    </g>

    <!-- input nodes (drawn on top, unmasked) -->
    <circle cx="62" cy="40" r="9"/>
    <circle cx="36" cy="90" r="9"/>
    <circle cx="62" cy="140" r="9"/>

    <!-- output square, nested in the right opening of the circle -->
    <rect x="132" y="72" width="36" height="36" rx="7"/>
  </g>

  <!-- ===== wordmark ===== -->
  <text x="205" y="110" font-family="Liberation Sans, DejaVu Sans, sans-serif" font-weight="bold"
        font-size="92" fill="url(#g)">Flux</text>
  <text x="208" y="146" font-family="Liberation Sans, DejaVu Sans, sans-serif" font-weight="bold"
        font-size="29" letter-spacing="7" fill="url(#g)">flux-flow</text>
</svg>
